<svg width="38" height="155" viewBox="0 0 38 155" fill="none" xmlns="http://www.w3.org/2000/svg">
<path d="M21.5 3C21.5 1.61929 20.3807 0.5 19 0.5C17.6193 0.5 16.5 1.61929 16.5 3L21.5 3ZM17.2322 153.768C18.2085 154.744 19.7914 154.744 20.7678 153.768L36.6777 137.858C37.654 136.882 37.654 135.299 36.6777 134.322C35.7014 133.346 34.1184 133.346 33.1421 134.322L19 148.464L4.85786 134.322C3.88155 133.346 2.29864 133.346 1.32232 134.322C0.346014 135.299 0.346014 136.882 1.32232 137.858L17.2322 153.768ZM16.5 3L16.5 152L21.5 152L21.5 3L16.5 3Z" fill="black"/>
</svg>
