<svg width="119" height="110" viewBox="0 0 119 110" fill="none" xmlns="http://www.w3.org/2000/svg">
<path d="M2.0656 0H84.5656V8.5H103C113 10.5 116.5 16 118 23.5V61C116.06 70.4233 111 74.5 103 76H84.5656V68H103C107.118 66.7413 108.535 65.0856 110 61V23.5C108.3 19.0597 106.635 17.5632 102.5 16.5H84.5656V84.5C86.5654 100.5 90.0654 107 80.0656 109.5H7.0656C-0.934613 108 -1.43464 104 2.0656 85V0Z" fill="#FFCFB2"/>
<path d="M71.0001 0H77.5001V85C81.5001 106 78.9999 110 69.5001 109.5C69.5001 109.5 78.0418 95.713 71.0001 85V0Z" fill="#FFB88B" fill-opacity="0.31"/>
<path d="M77.5 0H84.5657V8.5H103.066C111.566 9.98624 116.241 14.1858 118.066 23.5V61C116.066 70.9083 109.71 75.4062 103.066 76H84.5657V67.8807L103.066 68C107.066 66.6193 108.566 65 110.066 61V23.5C107.566 18.5 106.066 17.5 102.566 16.5H84.5657V84.5C85.0657 90 92.0657 108.5 80.0657 109.5H72.5657C79.0657 108.014 80.936 105.655 77.5 85V0Z" fill="#FFB88B"/>
</svg>
