<svg width="888" height="888" viewBox="0 0 888 888" fill="none" xmlns="http://www.w3.org/2000/svg">
<path fill-rule="evenodd" clip-rule="evenodd" d="M868 444C868 678.169 678.169 868 444 868C209.831 868 20 678.169 20 444C20 209.831 209.831 20 444 20C678.169 20 868 209.831 868 444ZM485.605 679.565C485.605 704.417 465.458 724.565 440.605 724.565C415.752 724.565 395.605 704.417 395.605 679.565C395.605 654.712 415.752 634.565 440.605 634.565C465.458 634.565 485.605 654.712 485.605 679.565ZM402.106 566.768C402.218 588.86 420.218 606.677 442.309 606.564C464.4 606.452 482.217 588.452 482.104 566.361C482.043 554.358 482.235 546.715 486.061 536.487C490.031 525.874 499.11 509.728 521.729 485.864C585.968 430.667 614.44 370.59 606.605 312.764C598.867 255.657 557.424 214.429 511.924 193.359C466.518 172.332 409.036 167.439 360.641 191.846C309.309 217.735 277.605 271.631 277.605 348.066C277.605 370.157 295.514 388.066 317.605 388.066C339.697 388.066 357.605 370.157 357.605 348.066C357.605 295.251 377.714 272.834 396.665 263.276C418.554 252.237 449.827 252.764 478.307 265.953C506.691 279.097 524.263 300.88 527.329 323.506C530.231 344.925 521.847 380.778 468.28 426.308L466.719 427.635L465.301 429.115C436.904 458.757 420.157 484.332 411.132 508.459C401.933 533.051 402.035 553.076 402.104 566.557L402.106 566.768Z" fill="url(#paint0_linear_104_179)"/>
<path d="M442.309 606.564L442.207 586.564H442.207L442.309 606.564ZM402.106 566.768L382.106 566.87L382.106 566.87L402.106 566.768ZM482.104 566.361L462.105 566.463L482.104 566.361ZM486.061 536.487L504.794 543.494L504.794 543.494L486.061 536.487ZM521.729 485.864L508.695 470.695L507.918 471.362L507.214 472.105L521.729 485.864ZM606.605 312.764L586.786 315.45L606.605 312.764ZM511.924 193.359L520.328 175.21L511.924 193.359ZM360.641 191.846L351.635 173.989L360.641 191.846ZM396.665 263.276L387.659 245.419L387.659 245.419L396.665 263.276ZM478.307 265.953L486.711 247.804L478.307 265.953ZM527.329 323.506L507.51 326.192L527.329 323.506ZM468.28 426.308L455.328 411.069L455.328 411.069L468.28 426.308ZM466.719 427.635L453.766 412.396L452.985 413.06L452.277 413.799L466.719 427.635ZM465.301 429.115L450.859 415.279L450.859 415.279L465.301 429.115ZM411.132 508.459L392.399 501.452L411.132 508.459ZM402.104 566.557L422.104 566.456L422.104 566.455L402.104 566.557ZM444 888C689.214 888 888 689.214 888 444H848C848 667.123 667.123 848 444 848V888ZM0 444C0 689.214 198.786 888 444 888V848C220.877 848 40 667.123 40 444H0ZM444 0C198.786 0 0 198.786 0 444H40C40 220.877 220.877 40 444 40V0ZM888 444C888 198.786 689.214 0 444 0V40C667.123 40 848 220.877 848 444H888ZM440.605 744.565C476.504 744.565 505.605 715.463 505.605 679.565H465.605C465.605 693.372 454.412 704.565 440.605 704.565V744.565ZM375.605 679.565C375.605 715.463 404.706 744.565 440.605 744.565V704.565C426.798 704.565 415.605 693.372 415.605 679.565H375.605ZM440.605 614.565C404.707 614.565 375.605 643.666 375.605 679.565H415.605C415.605 665.758 426.798 654.565 440.605 654.565V614.565ZM505.605 679.565C505.605 643.666 476.504 614.565 440.605 614.565V654.565C454.412 654.565 465.605 665.758 465.605 679.565H505.605ZM442.207 586.564C431.161 586.621 422.162 577.712 422.105 566.667L382.106 566.87C382.275 600.007 409.274 626.733 442.411 626.564L442.207 586.564ZM462.105 566.463C462.161 577.508 453.252 586.508 442.207 586.564L442.411 626.564C475.547 626.395 502.273 599.396 502.104 566.259L462.105 566.463ZM467.329 529.48C462.137 543.359 462.042 554.154 462.105 566.463L502.104 566.259C502.045 554.563 502.334 550.071 504.794 543.494L467.329 529.48ZM507.214 472.105C483.4 497.229 472.52 515.603 467.329 529.48L504.794 543.494C507.543 536.145 514.82 522.226 536.245 499.622L507.214 472.105ZM586.786 315.45C593.377 364.097 570.015 418.005 508.695 470.695L534.764 501.033C601.92 443.328 635.503 377.084 626.424 310.079L586.786 315.45ZM503.519 211.507C544.788 230.618 580.221 267.003 586.786 315.45L626.424 310.079C617.512 244.31 570.059 198.24 520.328 175.21L503.519 211.507ZM369.647 209.704C411.396 188.648 462.321 192.429 503.519 211.507L520.328 175.21C470.714 152.235 406.676 146.23 351.635 173.989L369.647 209.704ZM297.605 348.066C297.605 277.484 326.449 231.49 369.647 209.704L351.635 173.989C292.169 203.979 257.605 265.777 257.605 348.066H297.605ZM317.605 368.066C306.559 368.066 297.605 359.111 297.605 348.066H257.605C257.605 381.203 284.468 408.066 317.605 408.066V368.066ZM337.605 348.066C337.605 359.111 328.651 368.066 317.605 368.066V408.066C350.742 408.066 377.605 381.203 377.605 348.066H337.605ZM387.659 245.419C374.921 251.843 362.032 262.548 352.518 279.785C343.107 296.837 337.605 319.167 337.605 348.066H377.605C377.605 324.15 382.157 308.864 387.539 299.114C392.817 289.55 399.458 284.267 405.672 281.134L387.659 245.419ZM486.711 247.804C453.956 232.636 416.139 231.056 387.659 245.419L405.671 281.134C420.97 273.418 445.699 272.893 469.902 284.101L486.711 247.804ZM547.148 320.821C542.926 289.657 519.471 262.975 486.711 247.804L469.902 284.101C493.912 295.22 505.601 312.102 507.51 326.192L547.148 320.821ZM481.233 441.547C537.826 393.446 551.291 351.398 547.148 320.821L507.51 326.192C509.171 338.451 505.869 368.111 455.328 411.069L481.233 441.547ZM479.671 442.874L481.233 441.547L455.328 411.069L453.766 412.396L479.671 442.874ZM479.743 442.951L481.161 441.471L452.277 413.799L450.859 415.279L479.743 442.951ZM429.864 515.466C437.645 494.666 452.544 471.342 479.743 442.951L450.859 415.279C421.263 446.172 402.669 473.998 392.399 501.452L429.864 515.466ZM422.104 566.455C422.037 553.413 422.009 536.466 429.864 515.466L392.399 501.452C381.857 529.636 382.034 552.739 382.105 566.659L422.104 566.455ZM422.105 566.667L422.104 566.456L382.105 566.658L382.106 566.87L422.105 566.667Z" fill="#5B846B"/>
<defs>
<linearGradient id="paint0_linear_104_179" x1="708.5" y1="115.5" x2="114.5" y2="755" gradientUnits="userSpaceOnUse">
<stop stop-color="#B6E5B6"/>
<stop offset="1" stop-color="#A8D8D0"/>
</linearGradient>
</defs>
</svg>
